<svg width="500" height="500" viewBox="0 0 500 500" fill="none" xmlns="http://www.w3.org/2000/svg">
<g clip-path="url(#clip0_85_2)">
<rect width="500" height="500" rx="115" fill="white"/>
<g filter="url(#filter0_df_85_2)">
<rect x="278" y="56" width="249" height="340" rx="25" fill="#ACDAFF" shape-rendering="crispEdges"/>
<path d="M429.653 101.877C431.13 98.3031 434.642 96 438.513 96H483.21C488.518 96 492.788 100.249 492.788 105.53V150.004C492.788 153.855 490.473 157.35 486.881 158.819C483.29 160.288 479.179 159.494 476.426 156.754L463.096 143.491L442.105 164.378C449.887 175.655 454.476 189.275 454.476 204.007C454.476 242.604 423.029 273.894 384.238 273.894C345.448 273.894 314 242.604 314 204.007C314 165.41 345.448 134.12 384.238 134.12C399.004 134.12 412.732 138.647 424.066 146.43L445.058 125.543L431.729 112.28C428.975 109.541 428.177 105.451 429.653 101.877ZM384.238 248.481C390.108 248.481 395.92 247.33 401.343 245.095C406.766 242.86 411.693 239.584 415.844 235.455C419.994 231.325 423.286 226.422 425.533 221.026C427.779 215.631 428.935 209.847 428.935 204.007C428.935 198.167 427.779 192.384 425.533 186.988C423.286 181.592 419.994 176.689 415.844 172.56C411.693 168.43 406.766 165.154 401.343 162.919C395.92 160.684 390.108 159.534 384.238 159.534C378.368 159.534 372.556 160.684 367.133 162.919C361.71 165.154 356.783 168.43 352.633 172.56C348.482 176.689 345.19 181.592 342.943 186.988C340.697 192.384 339.541 198.167 339.541 204.007C339.541 209.847 340.697 215.631 342.943 221.026C345.19 226.422 348.482 231.325 352.633 235.455C356.783 239.584 361.71 242.86 367.133 245.095C372.556 247.33 378.368 248.481 384.238 248.481Z" fill="#4190EA"/>
</g>
<g filter="url(#filter1_df_85_2)">
<rect x="-34" y="56" width="249" height="340" rx="25" fill="#FAE471" shape-rendering="crispEdges"/>
<path d="M127.601 81.5906C129.247 77.5828 133.163 75 137.48 75H187.32C193.238 75 198 79.7648 198 85.6875V135.562C198 139.882 195.419 143.801 191.414 145.448C187.409 147.096 182.825 146.205 179.755 143.133L162.4 125.766L151.408 136.765C158.395 147.72 162.4 160.767 162.4 174.75C162.4 210.464 136.145 240.033 101.88 245.198V256.688H112.56C118.478 256.688 123.24 261.452 123.24 267.375C123.24 273.298 118.478 278.062 112.56 278.062H101.88V292.312C101.88 298.235 97.1185 303 91.2 303C85.2815 303 80.52 298.235 80.52 292.312V278.062H69.84C63.9215 278.062 59.16 273.298 59.16 267.375C59.16 261.452 63.9215 256.688 69.84 256.688H80.52V245.198C46.255 240.033 20 210.464 20 174.75C20 135.384 51.862 103.5 91.2 103.5C108.822 103.5 124.975 109.912 137.391 120.511L147.315 110.625L129.915 93.2578C126.844 90.1852 125.954 85.5984 127.601 81.5906ZM133.92 174.75C133.92 163.412 129.419 152.538 121.408 144.521C113.396 136.504 102.53 132 91.2 132C79.87 132 69.004 136.504 60.9924 144.521C52.9808 152.538 48.48 163.412 48.48 174.75C48.48 186.088 52.9808 196.962 60.9924 204.979C69.004 212.996 79.87 217.5 91.2 217.5C102.53 217.5 113.396 212.996 121.408 204.979C129.419 196.962 133.92 186.088 133.92 174.75Z" fill="#FBC217"/>
</g>
<g filter="url(#filter2_d_85_2)">
<rect x="125" y="188" width="249" height="340" rx="25" fill="#FFACAC" shape-rendering="crispEdges"/>
<path d="M205.083 298.469C205.083 292.58 206.245 286.748 208.502 281.308C210.76 275.867 214.068 270.924 218.239 266.759C222.41 262.595 227.362 259.292 232.811 257.039C238.261 254.785 244.101 253.625 250 253.625C255.899 253.625 261.739 254.785 267.189 257.039C272.638 259.292 277.59 262.595 281.761 266.759C285.932 270.924 289.24 275.867 291.498 281.308C293.755 286.748 294.917 292.58 294.917 298.469C294.917 304.358 293.755 310.189 291.498 315.63C289.24 321.07 285.932 326.014 281.761 330.178C277.59 334.342 272.638 337.645 267.189 339.899C261.739 342.153 255.899 343.312 250 343.312C244.101 343.312 238.261 342.153 232.811 339.899C227.362 337.645 222.41 334.342 218.239 330.178C214.068 326.014 210.76 321.07 208.502 315.63C206.245 310.189 205.083 304.358 205.083 298.469ZM262.833 367.776C295.679 361.771 320.583 333.022 320.583 298.469C320.583 259.551 288.981 228 250 228C211.019 228 179.417 259.551 179.417 298.469C179.417 333.022 204.321 361.771 237.167 367.776V381.75H224.333C217.235 381.75 211.5 387.476 211.5 394.562C211.5 401.649 217.235 407.375 224.333 407.375H237.167V420.188C237.167 427.274 242.902 433 250 433C257.098 433 262.833 427.274 262.833 420.188V407.375H275.667C282.765 407.375 288.5 401.649 288.5 394.562C288.5 387.476 282.765 381.75 275.667 381.75H262.833V367.776Z" fill="#FF5454"/>
</g>
</g>
<defs>
<filter id="filter0_df_85_2" x="273" y="51" width="262" height="354" filterUnits="userSpaceOnUse" color-interpolation-filters="sRGB">
<feFlood flood-opacity="0" result="BackgroundImageFix"/>
<feColorMatrix in="SourceAlpha" type="matrix" values="0 0 0 0 0 0 0 0 0 0 0 0 0 0 0 0 0 0 127 0" result="hardAlpha"/>
<feOffset dx="4" dy="5"/>
<feGaussianBlur stdDeviation="2"/>
<feComposite in2="hardAlpha" operator="out"/>
<feColorMatrix type="matrix" values="0 0 0 0 0 0 0 0 0 0 0 0 0 0 0 0 0 0 0.25 0"/>
<feBlend mode="normal" in2="BackgroundImageFix" result="effect1_dropShadow_85_2"/>
<feBlend mode="normal" in="SourceGraphic" in2="effect1_dropShadow_85_2" result="shape"/>
<feGaussianBlur stdDeviation="2.5" result="effect2_foregroundBlur_85_2"/>
</filter>
<filter id="filter1_df_85_2" x="-39" y="51" width="262" height="354" filterUnits="userSpaceOnUse" color-interpolation-filters="sRGB">
<feFlood flood-opacity="0" result="BackgroundImageFix"/>
<feColorMatrix in="SourceAlpha" type="matrix" values="0 0 0 0 0 0 0 0 0 0 0 0 0 0 0 0 0 0 127 0" result="hardAlpha"/>
<feOffset dx="4" dy="5"/>
<feGaussianBlur stdDeviation="2"/>
<feComposite in2="hardAlpha" operator="out"/>
<feColorMatrix type="matrix" values="0 0 0 0 0 0 0 0 0 0 0 0 0 0 0 0 0 0 0.25 0"/>
<feBlend mode="normal" in2="BackgroundImageFix" result="effect1_dropShadow_85_2"/>
<feBlend mode="normal" in="SourceGraphic" in2="effect1_dropShadow_85_2" result="shape"/>
<feGaussianBlur stdDeviation="2.5" result="effect2_foregroundBlur_85_2"/>
</filter>
<filter id="filter2_d_85_2" x="125" y="188" width="257" height="349" filterUnits="userSpaceOnUse" color-interpolation-filters="sRGB">
<feFlood flood-opacity="0" result="BackgroundImageFix"/>
<feColorMatrix in="SourceAlpha" type="matrix" values="0 0 0 0 0 0 0 0 0 0 0 0 0 0 0 0 0 0 127 0" result="hardAlpha"/>
<feOffset dx="4" dy="5"/>
<feGaussianBlur stdDeviation="2"/>
<feComposite in2="hardAlpha" operator="out"/>
<feColorMatrix type="matrix" values="0 0 0 0 0 0 0 0 0 0 0 0 0 0 0 0 0 0 0.25 0"/>
<feBlend mode="normal" in2="BackgroundImageFix" result="effect1_dropShadow_85_2"/>
<feBlend mode="normal" in="SourceGraphic" in2="effect1_dropShadow_85_2" result="shape"/>
</filter>
<clipPath id="clip0_85_2">
<rect width="500" height="500" rx="115" fill="white"/>
</clipPath>
</defs>
</svg>
